<?xml version="1.0" standalone="no"?>
<!DOCTYPE svg PUBLIC "-//W3C//DTD SVG 20010904//EN"
 "http://www.w3.org/TR/2001/REC-SVG-20010904/DTD/svg10.dtd">
<svg version="1.0" xmlns="http://www.w3.org/2000/svg"
 width="473.000000pt" height="474.000000pt" viewBox="0 0 473.000000 474.000000"
 preserveAspectRatio="xMidYMid meet">

<g transform="translate(0.000000,474.000000) scale(0.100000,-0.100000)"
fill="#000000" stroke="none">
<path d="M2135 4279 c-207 -28 -399 -87 -595 -180 -545 -261 -927 -754 -1057
-1364 -26 -122 -27 -145 -27 -375 0 -230 1 -253 27 -375 167 -781 740 -1355
1522 -1522 122 -26 145 -27 375 -27 230 0 253 1 375 27 421 90 790 300 1063
607 231 259 384 564 459 915 26 122 27 145 27 375 0 230 -1 253 -27 375 -39
180 -89 325 -168 484 -266 537 -753 911 -1349 1036 -108 23 -155 27 -340 30
-118 2 -246 -1 -285 -6z m532 -35 c407 -61 797 -263 1083 -560 283 -294 464
-668 521 -1074 15 -109 15 -391 0 -500 -60 -427 -263 -828 -567 -1120 -294
-283 -668 -464 -1074 -521 -109 -15 -391 -15 -500 0 -199 28 -387 85 -568 171
-521 250 -895 707 -1031 1262 -43 174 -54 269 -54 458 0 189 11 284 54 458
133 541 498 996 998 1247 230 115 432 169 736 199 69 7 302 -5 402 -20z"/>
<path d="M2260 4060 l0 -80 55 0 c30 0 55 5 55 10 0 6 -17 10 -39 10 -30 0
-40 4 -44 19 -6 25 0 31 35 31 15 0 28 5 28 10 0 6 -16 10 -36 10 -31 0 -35 3
-32 23 2 18 10 23 41 25 55 5 45 22 -13 22 l-50 0 0 -80z"/>
<path d="M2436 4127 c-29 -21 -17 -59 24 -78 50 -24 46 -44 -8 -43 -53 1 -51
-20 2 -24 45 -4 68 13 64 46 -2 19 -12 28 -37 37 -59 19 -49 62 12 49 32 -7
37 11 5 20 -33 8 -42 7 -62 -7z"/>
<path d="M2116 4123 l-28 -5 7 -71 c3 -40 10 -76 14 -80 15 -15 89 12 96 34
11 33 -5 98 -28 114 -12 8 -24 14 -27 14 -3 -1 -18 -4 -34 -6z m65 -68 c8 -46
-3 -65 -37 -65 -19 0 -24 5 -24 24 0 13 -3 38 -6 55 -7 32 -6 32 27 29 31 -3
34 -6 40 -43z"/>
<path d="M2593 4113 c-7 -2 -13 -18 -13 -34 0 -25 6 -33 35 -45 37 -15 46 -40
19 -51 -8 -3 -27 0 -41 6 -14 6 -28 9 -32 6 -10 -11 31 -35 59 -35 60 0 70 61
15 87 -48 23 -43 49 8 46 38 -2 50 10 21 21 -18 7 -53 7 -71 -1z"/>
<path d="M2745 4088 c-10 -30 -36 -140 -33 -143 7 -5 93 -24 96 -20 9 9 -10
23 -38 28 -22 5 -30 12 -30 28 0 19 4 21 35 16 44 -7 56 9 15 20 -16 4 -30 11
-30 16 0 4 0 14 0 23 0 13 7 15 40 9 45 -8 56 9 13 19 -16 4 -36 9 -46 12 -9
3 -19 -1 -22 -8z"/>
<path d="M2905 4050 c-10 -16 -45 -122 -45 -137 0 -25 18 -13 25 18 9 40 37
35 46 -9 4 -19 12 -39 19 -45 10 -10 11 -3 6 31 -5 34 -3 42 9 42 9 0 21 11
27 25 10 22 9 29 -8 44 -27 25 -72 42 -79 31z m46 -30 c36 -20 18 -57 -21 -45
-19 6 -27 35 -13 48 8 9 11 9 34 -3z"/>
<path d="M1940 4010 c0 -6 -11 -8 -25 -4 -18 4 -27 1 -31 -10 -8 -21 1 -31 18
-20 7 5 22 9 33 9 11 0 21 8 23 18 2 9 -1 17 -7 17 -6 0 -11 -5 -11 -10z"/>
<path d="M1662 3994 c-25 -17 -29 -56 -8 -73 9 -8 28 -10 50 -6 28 6 37 4 42
-10 9 -21 -7 -37 -40 -38 -14 -1 -26 -8 -26 -14 0 -17 25 -16 61 3 25 13 30
20 27 47 -3 31 -5 32 -51 33 -26 1 -50 4 -54 7 -12 13 8 38 37 43 16 4 30 10
30 15 0 15 -44 10 -68 -7z"/>
<path d="M3059 3981 l23 -18 -20 -39 c-27 -54 -35 -84 -23 -84 5 0 22 27 37
60 23 51 29 58 45 50 23 -13 29 -13 29 0 0 11 -82 50 -103 50 -7 0 -1 -9 12
-19z"/>
<path d="M1528 3929 c-21 -11 -38 -24 -38 -31 0 -9 54 -112 67 -128 6 -7 92
43 87 52 -3 4 -21 0 -40 -9 -31 -15 -36 -15 -44 -3 -15 23 -12 29 15 42 25 11
34 28 15 28 -6 0 -19 -6 -31 -12 -17 -11 -22 -10 -35 6 -13 18 -11 21 21 40
19 11 35 24 35 28 0 12 -11 9 -52 -13z"/>
<path d="M3168 3895 c-10 -22 -8 -29 15 -53 15 -16 27 -33 27 -40 0 -18 -41
-15 -62 5 -10 9 -21 13 -25 9 -10 -10 28 -44 59 -51 21 -6 30 -2 44 20 16 25
16 27 -10 53 -14 16 -26 36 -26 45 0 22 28 22 52 0 25 -22 36 -8 13 17 -26 29
-73 26 -87 -5z"/>
<path d="M1393 3848 c-44 -29 -61 -58 -24 -38 27 14 24 16 65 -45 20 -31 41
-53 46 -50 6 3 -6 29 -25 58 -40 59 -41 65 -18 82 9 7 12 14 7 17 -5 3 -28 -7
-51 -24z"/>
<path d="M2235 3864 c-285 -41 -484 -112 -684 -245 -347 -229 -579 -581 -657
-994 -26 -138 -26 -392 0 -530 118 -627 594 -1103 1221 -1221 138 -26 392 -26
530 0 627 118 1103 594 1221 1221 26 138 26 392 0 530 -117 618 -581 1090
-1196 1216 -92 19 -364 33 -435 23z m435 -49 c302 -66 543 -196 756 -409 216
-216 345 -458 411 -766 26 -121 26 -439 0 -560 -66 -308 -195 -550 -411 -766
-216 -216 -458 -345 -766 -411 -121 -26 -439 -26 -560 0 -308 66 -550 195
-766 411 -216 216 -345 458 -411 766 -26 121 -26 439 0 560 66 308 195 550
411 766 241 240 516 376 871 428 69 10 392 -3 465 -19z"/>
<path d="M1466 3095 c-180 -64 -282 -263 -228 -441 98 -319 512 -355 659 -56
25 51 28 68 28 157 0 86 -3 107 -24 150 -37 75 -124 157 -194 183 -68 26 -180
29 -241 7z m180 -14 c130 -59 86 -172 -99 -260 -72 -35 -141 -94 -165 -141
l-20 -42 -8 47 c-24 163 50 346 160 396 52 23 80 23 132 0z m155 -253 c34
-207 -81 -418 -226 -418 -77 0 -160 72 -187 162 -25 84 32 162 174 238 100 53
153 100 169 148 l12 37 24 -52 c13 -29 29 -81 34 -115z"/>
<path d="M1887 3097 c18 -7 43 -22 55 -35 23 -22 23 -27 26 -294 2 -193 -1
-280 -9 -300 -14 -35 -45 -58 -76 -58 -13 0 -23 -3 -23 -8 0 -4 137 -9 304
-10 l303 -3 7 33 c22 106 36 200 36 249 0 74 -29 109 -90 109 -53 0 -74 -21
-135 -138 -56 -110 -92 -144 -144 -140 -30 2 -39 9 -54 38 -16 31 -17 61 -15
262 3 211 4 229 24 254 11 15 36 33 55 40 29 11 12 12 -131 12 -138 0 -160 -1
-133 -11z m580 -351 c106 -91 -101 -336 -284 -336 -47 0 -96 35 -108 79 -7 23
-7 23 16 7 67 -47 140 3 213 144 66 128 107 154 163 106z"/>
<path d="M2777 3002 c-50 -31 -120 -215 -143 -377 l-7 -50 35 45 c28 37 38 63
51 137 10 51 22 102 27 115 11 23 11 23 5 -2 -11 -52 -18 -175 -9 -167 5 5 12
36 15 70 l6 62 1 -57 c1 -32 4 -58 7 -58 3 0 17 7 30 16 18 12 25 25 25 48 0
17 7 71 16 119 11 68 12 92 3 103 -15 18 -28 17 -62 -4z m0 -104 c-3 -8 -6 -5
-6 6 -1 11 2 17 5 13 3 -3 4 -12 1 -19z m-10 -40 c-3 -8 -6 -5 -6 6 -1 11 2
17 5 13 3 -3 4 -12 1 -19z"/>
<path d="M2692 2939 c-64 -66 -95 -132 -99 -213 -3 -45 0 -85 9 -110 l14 -38
13 83 c17 103 53 220 85 277 14 23 23 42 21 42 -2 0 -22 -18 -43 -41z"/>
<path d="M2851 2916 c-6 -25 -11 -70 -11 -102 l0 -56 27 7 c16 4 29 7 30 8 2
3 -27 181 -31 184 -2 2 -9 -16 -15 -41z"/>
<path d="M3002 2937 c-37 -14 -106 -66 -98 -75 4 -3 16 4 29 15 12 11 29 24
37 28 8 4 -2 -7 -22 -24 -46 -40 -50 -61 -5 -28 58 43 63 41 20 -6 -24 -26
-43 -51 -43 -56 0 -9 91 -3 102 8 9 8 38 110 38 133 0 21 -11 21 -58 5z"/>
<path d="M2933 2755 c-34 -7 -82 -22 -107 -34 -51 -22 -140 -101 -162 -142 -9
-18 5 -8 44 30 61 61 118 92 209 116 57 15 194 21 206 9 10 -10 -22 -76 -51
-107 -43 -46 -128 -84 -252 -114 l-55 -13 71 4 c168 10 306 103 330 223 5 28
3 31 -26 37 -50 9 -139 6 -207 -9z"/>
<path d="M2982 2714 c2 -11 11 -20 22 -22 13 -3 17 1 14 14 -2 11 -11 20 -22
22 -13 3 -17 -1 -14 -14z"/>
<path d="M3052 2718 c3 -7 13 -15 22 -16 12 -3 17 1 14 10 -3 7 -13 15 -22 16
-12 3 -17 -1 -14 -10z"/>
<path d="M2914 2694 c3 -9 6 -18 6 -20 0 -2 12 -4 26 -4 20 0 25 4 20 16 -3 9
-6 18 -6 20 0 2 -12 4 -26 4 -20 0 -25 -4 -20 -16z"/>
<path d="M2845 2690 c-9 -14 4 -32 17 -24 6 4 8 2 4 -4 -7 -12 13 -21 32 -14
18 6 15 30 -7 42 -25 13 -38 13 -46 0z"/>
<path d="M3042 2668 c3 -7 13 -15 22 -16 12 -3 17 1 14 10 -3 7 -13 15 -22 16
-12 3 -17 -1 -14 -10z"/>
<path d="M2802 2643 c2 -10 14 -19 26 -21 19 -3 23 1 20 15 -2 10 -14 19 -26
21 -19 3 -23 -1 -20 -15z"/>
<path d="M2980 2645 c0 -19 24 -29 46 -21 13 5 14 9 4 21 -16 20 -50 19 -50 0z"/>
<path d="M3119 2602 c-85 -86 -187 -122 -349 -123 l-105 -1 70 -24 c83 -27
172 -31 238 -8 60 20 135 88 170 153 16 28 27 51 25 50 -2 0 -24 -21 -49 -47z
m-69 -82 c-33 -26 -124 -60 -158 -59 -19 0 -11 5 25 14 29 8 74 26 100 39 58
30 66 32 33 6z"/>
<path d="M2923 2624 c-6 -16 19 -44 39 -44 15 0 20 30 8 45 -16 20 -39 19 -47
-1z"/>
<path d="M2750 2615 c0 -18 24 -30 40 -20 8 5 8 11 -1 21 -15 19 -39 18 -39
-1z"/>
<path d="M2865 2591 c-6 -10 21 -41 35 -41 16 0 22 21 10 35 -14 17 -36 20
-45 6z"/>
<path d="M2720 2580 c0 -5 7 -10 15 -10 8 0 15 5 15 10 0 6 -7 10 -15 10 -8 0
-15 -4 -15 -10z"/>
<path d="M2822 2558 c6 -18 28 -21 28 -4 0 9 -7 16 -16 16 -9 0 -14 -5 -12
-12z"/>
<path d="M2770 2546 c0 -9 7 -16 16 -16 17 0 14 22 -4 28 -7 2 -12 -3 -12 -12z"/>
<path d="M2738 2493 c7 -3 16 -2 19 1 4 3 -2 6 -13 5 -11 0 -14 -3 -6 -6z"/>
<path d="M3107 2325 c-77 -21 -153 -78 -197 -145 -122 -191 -54 -445 145 -541
110 -53 259 -34 352 46 72 62 133 186 133 272 0 45 -17 22 -23 -29 -8 -74 -39
-140 -94 -200 -107 -114 -227 -116 -341 -5 -110 106 -135 261 -71 433 24 63
70 121 104 130 33 8 78 -19 147 -89 34 -34 75 -72 91 -84 33 -25 86 -30 105
-11 17 17 15 73 -3 108 -46 89 -228 150 -348 115z m168 -24 c47 -21 112 -89
121 -127 4 -17 1 -31 -9 -41 -14 -14 -24 -8 -105 70 -49 47 -102 89 -117 93
-20 5 -23 9 -13 15 22 14 81 10 123 -10z"/>
<path d="M1230 2320 c0 -5 7 -10 17 -10 9 0 36 -11 60 -25 l43 -26 0 -273 c0
-268 0 -274 -23 -307 -14 -21 -39 -40 -67 -51 l-45 -17 140 0 c77 0 133 3 125
6 -111 40 -110 38 -110 354 l0 263 24 -33 c14 -18 57 -101 98 -184 143 -296
151 -312 176 -315 20 -3 36 24 167 290 l144 293 -2 -302 c-2 -300 -2 -303 -25
-325 -12 -13 -37 -28 -55 -35 -25 -9 69 -11 448 -10 l479 2 17 85 c9 47 15 89
12 93 -3 4 -17 -12 -33 -36 -28 -45 -71 -83 -125 -110 -76 -38 -205 -33 -255
10 l-30 25 0 118 c0 104 2 120 21 144 17 21 29 26 66 26 38 0 50 -5 79 -34 21
-21 34 -44 34 -60 0 -14 4 -26 9 -26 6 0 10 57 10 135 0 84 -4 133 -9 130 -6
-4 -10 -17 -10 -30 0 -35 -50 -82 -96 -90 -21 -3 -54 -13 -71 -20 l-33 -15 0
165 c0 193 -5 185 117 185 102 -1 141 -19 221 -104 35 -38 66 -66 68 -63 5 4
-5 75 -22 160 l-6 28 -294 -3 c-162 -1 -294 -6 -294 -10 0 -4 10 -8 23 -8 26
0 60 -26 76 -57 7 -14 11 -111 11 -285 0 -245 -1 -265 -20 -296 -11 -18 -32
-37 -48 -43 -41 -16 -101 -4 -131 25 l-26 26 0 286 0 286 33 29 c18 16 41 29
52 29 11 0 20 5 20 10 0 6 -42 10 -105 10 l-105 0 -123 -247 c-81 -165 -128
-249 -139 -251 -14 -3 -43 49 -139 247 l-122 251 -114 0 c-69 0 -113 -4 -113
-10z"/>
<path d="M1270 3733 c5 -16 16 -52 25 -80 9 -29 21 -53 27 -53 6 0 8 9 5 19
-3 12 4 28 18 41 19 18 27 20 43 11 12 -6 23 -7 26 -2 7 10 -117 91 -139 91
-11 0 -12 -7 -5 -27z m56 -19 c19 -13 22 -20 13 -30 -17 -21 -26 -17 -38 16
-12 35 -9 36 25 14z"/>
<path d="M3350 3734 c-10 -11 -9 -14 5 -14 9 0 24 -9 34 -21 15 -19 18 -20 30
-5 11 14 11 16 -3 16 -9 0 -19 6 -22 14 -8 22 -31 27 -44 10z"/>
<path d="M3526 3601 l-57 -58 32 -27 c37 -31 70 -31 84 1 5 12 19 26 32 32 32
15 29 51 -5 84 l-28 27 -58 -59z m94 -17 c0 -22 -20 -26 -46 -9 -25 16 -25 17
-8 36 16 18 18 18 36 3 10 -10 18 -23 18 -30z m-62 -16 c15 -15 16 -45 2 -53
-6 -4 -22 1 -36 10 -25 16 -25 17 -8 36 20 22 26 23 42 7z"/>
<path d="M1116 3622 c-3 -5 19 -33 49 -62 l55 -54 35 34 c19 18 32 37 29 42
-4 5 -19 -3 -36 -19 l-29 -28 -45 48 c-48 50 -50 51 -58 39z"/>
<path d="M1024 3525 c-20 -31 -12 -57 31 -89 84 -64 150 11 73 83 -41 38 -81
41 -104 6z m90 -24 c52 -54 9 -97 -45 -45 -28 27 -37 53 -22 67 14 15 40 6 67
-22z"/>
<path d="M3638 3473 c-37 -14 -65 -29 -62 -34 3 -5 15 -7 27 -4 29 7 65 -39
47 -60 -6 -8 -7 -16 -2 -19 6 -3 14 0 19 7 15 18 73 123 73 131 0 12 -35 5
-102 -21z m62 -11 c0 -18 -28 -45 -38 -38 -18 11 -14 34 6 39 28 8 32 7 32 -1z"/>
<path d="M944 3422 c-18 -12 -34 -50 -28 -66 9 -24 71 -66 97 -66 34 0 61 33
53 65 -4 14 -11 23 -17 19 -6 -3 -8 -13 -5 -21 7 -18 -11 -43 -31 -43 -23 0
-73 42 -73 62 0 10 11 24 25 30 14 6 25 15 25 20 0 10 -31 10 -46 0z"/>
<path d="M3755 3364 c-27 -19 -57 -39 -65 -44 -8 -5 -11 -12 -7 -16 4 -5 17
-3 27 4 20 12 60 17 60 7 0 -3 -9 -23 -20 -45 -12 -23 -16 -41 -10 -45 5 -3
20 14 32 39 20 43 25 46 61 46 23 0 36 4 32 10 -3 6 -24 10 -45 10 -48 0 -58
13 -25 34 24 16 34 37 18 35 -5 0 -30 -16 -58 -35z"/>
<path d="M843 3278 c-34 -45 -18 -84 46 -112 38 -18 42 -18 66 -2 43 28 32 77
-26 106 -44 23 -72 25 -86 8z m78 -31 c64 -43 30 -88 -38 -52 -44 24 -45 69
-2 74 3 1 21 -9 40 -22z"/>
<path d="M3833 3214 c-35 -19 -63 -37 -63 -40 0 -11 46 -84 53 -84 12 0 8 23
-8 44 -20 26 -19 33 5 46 16 9 22 6 35 -20 9 -17 20 -28 25 -25 6 4 3 19 -6
37 -13 25 -14 32 -2 39 21 14 28 11 46 -21 15 -27 32 -40 32 -25 0 13 -41 85
-48 85 -4 0 -35 -16 -69 -36z"/>
<path d="M770 3141 c0 -5 13 -14 29 -21 27 -11 29 -14 19 -42 -11 -30 -21 -32
-72 -12 -9 3 -16 2 -16 -4 0 -10 122 -72 141 -72 20 0 7 18 -21 30 -35 14 -33
12 -18 45 13 28 16 29 52 15 14 -5 28 -5 31 -1 3 5 -25 23 -61 40 -70 33 -84
36 -84 22z"/>
<path d="M3908 3077 c-82 -36 -96 -65 -17 -33 27 12 30 -21 5 -51 -13 -16 -21
-33 -19 -40 3 -8 13 -2 27 14 16 19 33 27 56 27 38 1 56 22 47 57 -14 56 -26
59 -99 26z m80 -47 c-5 -24 -36 -23 -49 1 -10 19 -9 25 7 36 16 12 21 11 32
-4 7 -10 11 -24 10 -33z"/>
<path d="M694 2955 c-9 -15 -13 -32 -9 -45 12 -39 115 -66 143 -38 17 17 15
63 -3 78 -13 10 -14 7 -12 -26 l2 -39 -38 1 c-25 1 -47 9 -59 22 l-21 20 28
26 c26 24 27 26 7 26 -12 0 -29 -11 -38 -25z"/>
<path d="M4000 2925 c-18 -19 -46 -37 -62 -40 -15 -4 -28 -13 -28 -21 0 -11 6
-11 28 -3 15 6 50 8 80 4 59 -7 73 9 16 20 l-36 6 26 28 c14 15 26 30 26 34 0
15 -18 5 -50 -28z"/>
<path d="M570 2490 c-13 -97 -3 -153 36 -199 29 -34 99 -64 140 -59 28 3 29 4
32 69 3 59 0 70 -23 97 -38 45 -90 74 -133 74 -20 0 -40 5 -44 11 -4 7 -8 10
-8 7z m104 -53 c47 -27 75 -62 85 -108 13 -58 0 -62 -27 -9 -14 28 -48 71 -74
96 -51 48 -45 56 16 21z m7 -107 c45 -53 48 -60 22 -42 -33 23 -60 57 -83 102
-14 29 -12 26 61 -60z m-47 -19 c11 -13 39 -32 61 -42 23 -11 32 -19 21 -19
-47 0 -127 70 -126 112 0 7 5 4 12 -7 6 -11 20 -31 32 -44z"/>
<path d="M4175 2480 c-3 -5 -20 -9 -38 -8 -61 2 -149 -64 -162 -123 -4 -17 -4
-51 0 -76 l7 -46 50 6 c106 13 159 79 156 194 -2 65 -3 70 -13 53z m-50 -39
c-39 -24 -56 -43 -99 -115 l-36 -60 0 35 c0 56 43 115 105 144 44 21 65 18 30
-4z m1 -69 c-14 -26 -89 -102 -102 -102 -3 0 21 29 53 65 32 36 59 65 61 65 1
0 -4 -13 -12 -28z m27 -39 c-22 -43 -56 -70 -98 -78 -25 -6 -21 -1 22 24 35
21 57 42 70 70 10 21 20 35 21 30 2 -5 -5 -26 -15 -46z"/>
<path d="M3936 1862 c-3 -5 6 -20 19 -32 27 -26 20 -40 -22 -40 -12 0 -25 -5
-28 -10 -4 -7 15 -10 57 -8 35 2 73 -1 86 -5 14 -5 22 -5 22 3 0 6 -12 15 -27
21 -16 6 -44 26 -64 46 -20 19 -39 31 -43 25z"/>
<path d="M753 1840 c-39 -17 -43 -23 -43 -54 0 -34 20 -56 49 -56 19 0 12 18
-9 25 -24 8 -26 37 -5 55 9 7 32 13 53 14 36 1 37 0 36 -31 -1 -18 2 -33 7
-33 17 0 27 44 16 65 -21 40 -42 44 -104 15z"/>
<path d="M822 1695 c-40 -19 -70 -39 -67 -45 4 -6 17 -4 35 5 29 15 30 14 45
-15 15 -29 15 -30 -15 -45 -60 -31 -19 -33 50 -2 83 37 99 66 18 32 -12 -5
-21 2 -33 25 l-16 31 30 12 c17 6 31 17 31 24 0 17 6 18 -78 -22z"/>
<path d="M3892 1723 c-13 -5 -42 -55 -42 -73 0 -16 131 -73 142 -62 5 5 -4 14
-21 22 -17 7 -31 15 -31 19 0 17 27 31 56 31 18 0 36 5 39 10 4 6 -9 10 -30
10 -28 0 -42 6 -57 25 -19 25 -31 28 -56 18z m43 -33 c8 -14 -13 -50 -30 -50
-19 0 -27 16 -20 40 7 21 39 27 50 10z"/>
<path d="M3802 1561 c-12 -21 -22 -41 -22 -44 0 -8 118 -77 130 -77 9 0 50 71
50 85 0 16 -22 1 -35 -25 -17 -32 -22 -35 -45 -20 -13 8 -13 13 3 40 14 24 15
30 4 30 -8 0 -19 -11 -25 -25 -13 -28 -24 -31 -41 -11 -10 11 -9 21 3 45 18
34 19 41 8 41 -5 0 -18 -17 -30 -39z"/>
<path d="M889 1537 c-37 -24 -50 -67 -28 -93 32 -39 139 10 139 65 0 55 -52
68 -111 28z m89 -24 c4 -26 -50 -65 -83 -61 -35 5 -31 45 7 68 41 25 72 22 76
-7z"/>
<path d="M3740 1452 c0 -10 5 -33 11 -51 14 -41 8 -46 -24 -21 -28 22 -37 25
-37 10 0 -14 124 -102 128 -91 2 5 -6 19 -17 30 -31 31 -26 41 23 41 64 0 65
17 2 24 -50 7 -55 10 -61 37 -8 34 -25 49 -25 21z"/>
<path d="M984 1408 c-37 -29 -44 -38 -44 -65 0 -27 25 -53 51 -53 25 0 25 16
-1 23 -36 9 -36 37 -2 69 18 15 38 28 46 28 18 0 38 -25 34 -42 -2 -7 2 -16 7
-18 18 -9 17 41 -1 61 -23 25 -55 24 -90 -3z"/>
<path d="M1079 1286 c-41 -35 -50 -58 -36 -87 18 -35 59 -36 101 -4 44 33 52
59 32 90 -21 32 -62 32 -97 1z m79 -19 c5 -26 -47 -79 -73 -75 -31 5 -30 37 1
69 31 33 67 35 72 6z"/>
<path d="M3616 1302 c-8 -13 74 -153 85 -147 6 4 5 13 -1 24 -11 22 20 56 51
56 10 0 19 4 19 9 2 12 -148 68 -154 58z m93 -49 c5 -4 -20 -33 -29 -33 -6 0
-30 44 -30 55 0 4 47 -14 59 -22z"/>
<path d="M1181 1156 l-53 -53 38 -36 c43 -41 69 -39 30 2 -14 15 -26 32 -26
37 0 5 18 28 40 49 39 38 49 55 32 55 -4 0 -32 -24 -61 -54z"/>
<path d="M3508 1185 c-16 -13 -28 -28 -28 -32 0 -5 24 -32 53 -61 l54 -53 31
36 c18 20 32 39 32 44 0 10 -34 41 -46 41 -5 0 -14 10 -19 23 -14 30 -45 32
-77 2z m59 -10 c3 -9 -3 -25 -13 -36 -16 -17 -19 -18 -33 -5 -13 14 -13 18 4
36 22 24 34 25 42 5z m50 -50 c3 -9 -3 -25 -12 -35 -17 -19 -19 -19 -37 -3
-17 15 -17 17 -2 35 21 22 43 23 51 3z"/>
<path d="M1306 1046 c-44 -28 -64 -46 -56 -51 6 -4 16 -3 22 3 18 18 58 -16
58 -49 0 -49 14 -32 38 45 24 80 26 96 15 96 -5 0 -39 -20 -77 -44z m52 -21
c-9 -29 -14 -33 -30 -24 -10 5 -18 13 -18 17 0 6 47 40 57 42 0 0 -4 -16 -9
-35z"/>
<path d="M1446 1033 c-3 -4 1 -15 10 -25 16 -17 15 -21 -19 -72 -20 -30 -32
-58 -27 -61 5 -3 26 19 46 50 37 55 48 63 59 45 8 -13 25 -13 25 0 0 13 -86
71 -94 63z"/>
<path d="M3409 1013 c-1 -4 -1 -11 0 -15 0 -5 -8 -8 -19 -8 -11 0 -23 -7 -27
-15 -7 -19 5 -34 15 -19 4 6 17 14 30 18 23 8 30 30 12 41 -5 3 -11 3 -11 -2z"/>
<path d="M1537 888 c-21 -38 -37 -71 -35 -73 19 -17 88 -43 93 -35 3 5 -10 17
-29 27 -39 18 -40 21 -27 42 8 12 14 12 40 1 18 -7 35 -9 39 -5 4 4 2 10 -4
12 -31 11 -46 30 -40 51 l7 22 41 -21 c53 -27 46 -2 -8 28 l-39 22 -38 -71z"/>
<path d="M3156 929 c-51 -40 -24 -86 43 -75 24 4 42 2 46 -5 9 -14 -24 -49
-47 -49 -10 0 -18 -4 -18 -10 0 -29 78 4 86 37 10 37 -12 54 -64 51 -55 -4
-66 15 -23 39 17 10 31 21 31 26 0 14 -27 7 -54 -14z"/>
<path d="M3028 872 c-42 -19 -51 -38 -15 -28 21 5 27 -1 50 -54 14 -33 30 -60
36 -60 15 0 15 -1 -15 66 -23 52 -24 59 -10 70 38 27 10 31 -46 6z"/>
<path d="M1697 862 c-25 -27 -21 -44 14 -73 33 -27 33 -49 -1 -49 -10 0 -26 7
-34 16 -9 8 -21 14 -28 12 -24 -8 31 -48 67 -48 29 0 36 4 41 26 5 20 0 32
-25 58 -17 18 -28 35 -25 39 11 11 49 8 62 -5 6 -6 15 -8 19 -5 10 11 -18 35
-47 42 -18 4 -31 1 -43 -13z"/>
<path d="M2890 819 c-13 -6 -26 -12 -28 -14 -8 -8 43 -145 55 -145 9 0 10 6 3
26 -6 14 -10 30 -10 35 0 17 37 9 55 -11 10 -11 25 -20 33 -20 11 0 8 8 -11
28 -19 20 -24 31 -17 42 14 22 12 36 -6 54 -17 18 -38 19 -74 5z m58 -36 c3
-22 -28 -40 -48 -28 -16 10 -11 43 8 48 27 7 37 2 40 -20z"/>
<path d="M2755 783 c-44 -10 -44 -9 -25 -83 10 -40 21 -74 23 -77 7 -6 70 6
87 17 23 14 7 20 -32 11 -41 -9 -48 -6 -48 20 0 11 11 20 30 24 42 9 39 29 -4
21 -26 -5 -35 -3 -40 10 -11 28 -7 32 34 39 22 4 40 11 40 16 0 9 -29 10 -65
2z"/>
<path d="M2117 753 c-3 -5 -9 -41 -12 -81 l-8 -72 45 0 c26 0 50 6 57 14 18
22 24 99 9 118 -15 19 -83 35 -91 21z m76 -37 c3 -6 2 -29 -2 -51 -6 -36 -9
-40 -39 -43 l-33 -3 6 48 c4 26 8 53 10 59 4 14 52 6 58 -10z"/>
<path d="M2592 744 c-36 -25 -23 -74 21 -74 30 0 57 -19 51 -35 -4 -10 -20
-15 -45 -15 -41 0 -53 -14 -20 -23 31 -8 71 4 82 25 18 33 2 57 -42 64 -22 4
-42 11 -46 17 -8 13 28 39 45 32 20 -8 37 6 21 16 -21 13 -42 11 -67 -7z"/>
<path d="M1897 734 c-11 -12 -8 -25 6 -22 6 1 22 -3 33 -10 18 -9 24 -9 34 3
7 8 11 15 9 16 -2 0 -13 2 -24 4 -11 1 -27 5 -36 9 -8 4 -18 3 -22 0z"/>
<path d="M2270 660 l0 -80 50 0 c28 0 50 5 50 10 0 6 -18 10 -40 10 -36 0 -40
3 -40 25 0 22 4 25 35 25 19 0 35 5 35 10 0 6 -16 10 -35 10 -31 0 -35 3 -35
25 0 23 4 25 40 25 22 0 40 5 40 10 0 6 -22 10 -50 10 l-50 0 0 -80z"/>
<path d="M2432 728 c-31 -31 -3 -78 48 -78 25 0 38 -28 19 -41 -8 -5 -29 -7
-46 -4 -20 4 -33 2 -33 -4 0 -16 50 -25 79 -15 47 17 36 84 -14 84 -26 0 -50
24 -40 40 4 6 20 10 36 8 16 -1 30 2 31 7 4 15 -65 18 -80 3z"/>
</g>
</svg>
